<svg width="281" height="34" viewBox="0 0 281 34" fill="none" xmlns="http://www.w3.org/2000/svg">
<g clip-path="url(#clip0_2022_21)">
<path d="M12.7844 34C9.01552 34 5.99318 32.9786 3.71227 30.9408C1.42621 28.9081 0.190505 26.1624 0 22.7139H4.83471C5.02521 24.8781 5.81813 26.572 7.20315 27.8108C8.59332 29.0547 10.452 29.6716 12.7793 29.6716C14.9778 29.6716 16.7438 29.2418 18.0722 28.3772C19.3955 27.5176 20.0597 26.2281 20.0597 24.4988C20.0597 23.2751 19.586 22.2638 18.6489 21.4649C17.7067 20.666 16.5327 20.0845 15.1271 19.7255C13.7215 19.3665 12.1975 18.9316 10.555 18.4361C8.9074 17.9304 7.3885 17.3944 5.98289 16.8129C4.57727 16.2314 3.40335 15.296 2.46112 13.9914C1.51889 12.6919 1.05035 11.0991 1.05035 9.21804C1.05035 6.58865 2.111 4.44974 4.23745 2.80132C6.3639 1.15795 9.11335 0.33374 12.4961 0.33374C15.8788 0.33374 18.7055 1.2338 20.8732 3.03898C23.0408 4.84415 24.2405 7.246 24.4619 10.2546H19.6272C19.4675 8.56069 18.7467 7.20554 17.4698 6.18918C16.1929 5.16777 14.535 4.66212 12.4909 4.66212C10.4469 4.66212 8.8971 5.07675 7.74892 5.90602C6.60074 6.73529 6.02408 7.84266 6.02408 9.21804C6.02408 10.285 6.37419 11.18 7.07958 11.903C7.77981 12.6211 8.69115 13.1672 9.80843 13.5464C10.9257 13.9257 12.1717 14.2695 13.5413 14.583C14.9109 14.8965 16.2805 15.2707 17.6346 15.7106C18.9887 16.1505 20.2296 16.6865 21.3469 17.3287C22.4641 17.9759 23.3703 18.9013 24.0757 20.1047C24.7811 21.3082 25.1312 22.7594 25.1312 24.4533C25.1312 27.4013 23.9882 29.7323 21.7073 31.4364C19.4264 33.1455 16.4504 34 12.7793 34H12.7844Z" fill="white"/>
<path d="M29.7344 33.6259V9.92604H34.3786V14.1583C34.8883 12.7779 35.7739 11.6655 37.0353 10.816C38.2968 9.97155 39.79 9.5468 41.5096 9.5468C43.4919 9.5468 45.1653 9.97155 46.54 10.816C47.9147 11.6655 48.8364 12.8538 49.3152 14.3859C49.794 13.0105 50.7672 11.8576 52.2397 10.9323C53.7071 10.0069 55.3496 9.54175 57.1722 9.54175C59.7878 9.54175 61.8576 10.3558 63.3714 11.9891C64.8851 13.6173 65.6471 15.8118 65.6471 18.5676V33.6158H61.0029V19.8368C61.0029 17.9254 60.5498 16.3984 59.6385 15.2556C58.7272 14.1128 57.476 13.5364 55.8799 13.5364C54.0624 13.5364 52.6259 14.1078 51.5704 15.2556C50.52 16.3984 49.9897 17.9254 49.9897 19.8368V33.6158H45.3455V19.8368C45.3455 17.9254 44.8924 16.3984 43.9811 15.2556C43.0697 14.1128 41.834 13.5364 40.2688 13.5364C38.4513 13.5364 37.0148 14.1078 35.9593 15.2556C34.9038 16.3984 34.3786 17.9254 34.3786 19.8368V33.6158H29.7344V33.6259Z" fill="white"/>
<path d="M71.9956 0H77.165V5.73409H71.9956V0ZM72.2839 33.6258V9.92594H76.9281V33.6258H72.2839Z" fill="white"/>
<path d="M116.167 25.9095H120.811C120.363 28.3569 119.138 30.3137 117.125 31.7852C115.111 33.2566 112.625 33.9999 109.654 33.9999C106.044 33.9999 103.125 32.7914 100.89 30.3795C98.6559 27.9625 97.5386 25.0499 97.5386 21.6317C97.5386 18.2135 98.5786 15.306 100.654 13.0053C102.729 10.6995 105.571 9.54663 109.175 9.54663C112.779 9.54663 115.549 10.6287 117.578 12.7929C119.601 14.952 120.615 17.6219 120.615 20.7873C120.615 21.4143 120.585 22.0109 120.518 22.5722H102.085C102.275 24.8274 103.058 26.6478 104.433 28.0282C105.808 29.4036 107.548 30.0963 109.654 30.0963C113.289 30.0963 115.461 28.7058 116.162 25.9095H116.167ZM109.175 13.2177C105.282 13.2177 102.965 15.2251 102.234 19.24H115.925C115.765 17.4196 115.096 15.9633 113.912 14.8661C112.733 13.7688 111.152 13.2227 109.175 13.2227V13.2177Z" fill="white"/>
<path d="M147.719 34C143.95 34 140.927 32.9786 138.646 30.9408C136.36 28.903 135.125 26.1574 134.934 22.7139H139.769C139.959 24.8781 140.752 26.572 142.137 27.8108C143.527 29.0547 145.386 29.6716 147.713 29.6716C149.912 29.6716 151.678 29.2418 153.006 28.3772C154.33 27.5176 154.994 26.2281 154.994 24.4988C154.994 23.2751 154.52 22.2638 153.583 21.4649C152.641 20.666 151.467 20.0845 150.061 19.7255C148.656 19.3665 147.132 18.9316 145.489 18.4361C143.841 17.9304 142.323 17.3944 140.917 16.8129C139.511 16.2314 138.337 15.296 137.395 13.9914C136.453 12.6919 135.984 11.0991 135.984 9.21804C135.984 6.58865 137.045 4.44974 139.172 2.80132C141.293 1.15795 144.047 0.33374 147.43 0.33374C150.813 0.33374 153.64 1.2338 155.807 3.03898C157.975 4.84415 159.175 7.246 159.396 10.2546H154.561C154.402 8.56069 153.681 7.20554 152.404 6.18918C151.127 5.17282 149.469 4.66212 147.425 4.66212C145.381 4.66212 143.831 5.07675 142.683 5.90602C141.535 6.73529 140.958 7.84266 140.958 9.21804C140.958 10.285 141.308 11.18 142.014 11.903C142.714 12.6211 143.625 13.1672 144.743 13.5464C145.86 13.9257 147.106 14.2695 148.475 14.583C149.845 14.8965 151.215 15.2707 152.569 15.7106C153.923 16.1505 155.164 16.6865 156.281 17.3287C157.398 17.9759 158.304 18.9013 159.01 20.1047C159.715 21.3082 160.065 22.7594 160.065 24.4533C160.065 27.4013 158.922 29.7323 156.641 31.4364C154.36 33.1455 151.384 34 147.713 34H147.719Z" fill="white"/>
<path d="M167.351 2.4978H171.995V9.92582H179.131V13.875H171.995V25.7224C171.995 26.9764 172.32 27.9472 172.979 28.6349C173.632 29.3226 174.549 29.6715 175.733 29.6715H179.131V33.6206H175.347C172.886 33.6206 170.94 32.933 169.503 31.5525C168.067 30.1772 167.351 28.2759 167.351 25.864V13.875H162.418V9.92582H167.351V2.4978Z" fill="white"/>
<path d="M204.262 9.92603V33.6259H199.618V29.4391C198.98 30.9106 197.981 32.0432 196.627 32.827C195.267 33.6107 193.682 34.0051 191.864 34.0051C189.151 34.0051 186.973 33.1304 185.325 31.3707C183.683 29.6161 182.859 27.3255 182.859 24.504V9.92603H187.503V23.609C187.503 25.49 188.023 27.012 189.058 28.1699C190.098 29.3329 191.457 29.9094 193.151 29.9094C195.036 29.9094 196.58 29.2369 197.796 27.8868C199.011 26.5367 199.618 24.8276 199.618 22.7595V9.92603H204.262Z" fill="white"/>
<path d="M220.399 34C216.759 34 213.916 32.8724 211.877 30.6121C209.839 28.3519 208.814 25.409 208.814 21.7733C208.814 18.1377 209.839 15.2302 211.877 12.9548C213.916 10.6794 216.743 9.5467 220.352 9.5467C221.979 9.5467 223.478 9.90065 224.852 10.6086C226.227 11.3165 227.278 12.2469 228.014 13.4048V0H232.658V33.6208H228.014V30.0913C227.283 31.2847 226.227 32.2302 224.852 32.9381C223.478 33.646 221.995 34 220.399 34ZM215.564 27.7451C216.908 29.2519 218.689 30.0003 220.929 30.0003C223.169 30.0003 224.955 29.2469 226.315 27.7451C227.669 26.2383 228.348 24.251 228.348 21.7733C228.348 19.2957 227.669 17.3084 226.315 15.8016C224.955 14.2948 223.164 13.5464 220.929 13.5464C218.694 13.5464 216.908 14.2998 215.564 15.8016C214.22 17.3034 213.551 19.2957 213.551 21.7733C213.551 24.251 214.22 26.2383 215.564 27.7451Z" fill="white"/>
<path d="M238.497 0H243.666V5.73409H238.497V0ZM238.78 33.6258V9.92594H243.424V33.6258H238.78Z" fill="white"/>
<path d="M269.281 30.5413C266.949 32.847 263.983 33.9999 260.374 33.9999C256.765 33.9999 253.789 32.847 251.446 30.5413C249.098 28.2406 247.924 25.3179 247.924 21.7733C247.924 18.2287 249.098 15.306 251.446 13.0053C253.794 10.6995 256.77 9.54663 260.374 9.54663C263.978 9.54663 266.949 10.6995 269.281 13.0053C271.609 15.306 272.777 18.2287 272.777 21.7733C272.777 25.3179 271.614 28.2406 269.281 30.5413ZM260.374 30.0002C262.64 30.0002 264.483 29.2316 265.904 27.6995C267.325 26.1623 268.03 24.1903 268.03 21.7733C268.03 19.3563 267.32 17.3842 265.904 15.8521C264.483 14.3149 262.64 13.5463 260.374 13.5463C258.109 13.5463 256.214 14.3149 254.798 15.8521C253.377 17.3842 252.666 19.3613 252.666 21.7733C252.666 24.1852 253.377 26.1623 254.798 27.6995C256.219 29.2316 258.078 30.0002 260.374 30.0002Z" fill="white"/>
<path d="M274.41 4.09578V0.535991H273.107V0H276.335V0.535991H275.033V4.09578H274.415H274.41Z" fill="white"/>
<path d="M276.819 4.09578V0H277.581L278.91 3.26145L280.238 0H281V4.09578H280.403V1.0467L279.157 4.09578H278.657L277.406 1.0467V4.09578H276.819Z" fill="white"/>
<path d="M87.7612 33.6258H82.4683C92.287 17.8293 83.7812 2.15913 82.5095 0H87.7149C90.3819 5.52677 95.3351 19.2855 87.7561 33.6258H87.7612Z" fill="white"/>
</g>
<defs>
<clipPath id="clip0_2022_21">
<rect width="281" height="34" fill="white"/>
</clipPath>
</defs>
</svg>
